<?xml version="1.0" standalone="no"?>
<!DOCTYPE svg PUBLIC "-//W3C//DTD SVG 20010904//EN"
 "http://www.w3.org/TR/2001/REC-SVG-20010904/DTD/svg10.dtd">
<svg version="1.0" xmlns="http://www.w3.org/2000/svg"
 width="700.000000pt" height="700.000000pt" viewBox="0 0 700.000000 700.000000"
 preserveAspectRatio="xMidYMid meet">
<metadata>
Created by potrace 1.11, written by Peter Selinger 2001-2013
</metadata>
<g transform="translate(0.000000,700.000000) scale(0.100000,-0.100000)"
fill="#000000" stroke="none">
<path d="M582 6989 c-12 -5 -28 -6 -36 -3 -8 3 -17 1 -21 -5 -3 -6 -13 -11
-21 -11 -8 0 -31 -7 -52 -17 -20 -9 -39 -17 -42 -18 -16 -5 -66 -31 -70 -36
-3 -3 -20 -14 -37 -23 -18 -9 -33 -21 -33 -26 0 -6 -7 -10 -16 -10 -8 0 -12
-5 -9 -10 3 -6 -4 -14 -17 -19 -13 -5 -32 -22 -43 -37 -11 -15 -26 -33 -33
-40 -6 -7 -12 -18 -12 -25 0 -7 -3 -9 -7 -6 -3 4 -13 -6 -21 -21 -37 -69 -64
-125 -66 -136 -1 -6 -9 -25 -18 -43 -11 -23 -13 -33 -4 -37 7 -3 8 -7 1 -13
-5 -4 -12 -19 -15 -33 -6 -32 -5 -5817 1 -5850 3 -14 8 -30 11 -35 3 -6 4 -20
3 -32 -1 -12 2 -20 7 -17 4 3 8 -4 8 -15 0 -12 5 -21 11 -21 5 0 8 -4 5 -9 -6
-10 16 -61 27 -61 4 0 7 -7 7 -15 0 -18 90 -138 134 -178 17 -15 56 -44 86
-65 30 -20 58 -41 62 -47 4 -5 8 -6 8 -1 0 4 11 1 25 -8 14 -9 30 -14 34 -11
5 3 11 0 13 -5 2 -6 12 -13 23 -15 11 -2 20 -4 20 -5 0 -1 11 -4 25 -6 14 -3
39 -7 55 -11 35 -7 5820 -10 5850 -2 11 2 26 9 34 13 11 7 12 6 6 -5 -7 -11
-6 -12 6 -3 15 12 68 28 82 26 4 -1 7 2 7 8 0 6 4 9 8 8 13 -4 132 64 132 74
0 5 5 6 10 3 6 -3 10 -2 10 4 0 5 9 13 20 16 11 4 18 11 15 16 -4 5 -1 9 5 9
6 0 25 16 43 36 18 20 42 47 55 60 12 13 22 27 22 31 0 5 6 15 13 23 19 22 67
128 70 153 1 12 5 24 9 27 4 4 9 23 10 43 2 20 6 37 9 37 8 0 9 5801 1 5814
-5 8 -11 44 -15 89 -1 9 -4 17 -8 17 -4 0 -10 12 -14 28 -11 46 -38 101 -47
96 -4 -3 -5 2 -2 10 3 9 1 16 -5 16 -6 0 -11 7 -11 15 0 8 -4 15 -10 15 -5 0
-10 7 -10 16 0 8 -4 12 -10 9 -6 -3 -10 1 -10 9 0 9 -4 16 -10 16 -5 0 -9 3
-8 8 3 9 -57 72 -69 72 -5 0 -19 10 -31 23 -29 31 -50 47 -61 47 -5 0 -11 4
-13 9 -1 5 -10 11 -18 13 -8 2 -17 6 -20 9 -9 11 -142 60 -148 55 -3 -3 -11
-1 -18 5 -8 6 -21 9 -29 5 -8 -3 -15 -1 -15 3 0 11 -5798 11 -5828 0z"/>
</g>
</svg>
