<?xml version="1.0" standalone="no"?>
<!DOCTYPE svg PUBLIC "-//W3C//DTD SVG 20010904//EN"
 "http://www.w3.org/TR/2001/REC-SVG-20010904/DTD/svg10.dtd">
<svg version="1.0" xmlns="http://www.w3.org/2000/svg"
 width="520.000000pt" height="520.000000pt" viewBox="0 0 520.000000 520.000000"
 preserveAspectRatio="xMidYMid meet">
<metadata>
Created by potrace 1.11, written by Peter Selinger 2001-2013
</metadata>
<g transform="translate(0.000000,520.000000) scale(0.100000,-0.100000)"
fill="#000000" stroke="none">
<path d="M0 2600 l0 -2600 200 0 200 0 0 38 c1 20 1 1100 1 2400 l0 2362 600
0 599 0 0 -2400 0 -2400 1003 0 1002 0 0 2397 0 2398 598 3 597 2 0 -2400 0
-2400 200 0 200 0 0 2600 0 2600 -1000 0 -1000 0 0 -2399 0 -2399 -599 -1
-599 0 1 2400 2 2399 -1002 0 -1003 0 0 -2600z"/>
<path d="M2397 3004 c1 -1208 3 -2198 6 -2200 6 -6 387 -7 393 -1 4 4 8 4032
4 4360 l0 37 -202 0 -203 0 2 -2196z"/>
<path d="M800 4363 c-1 -56 -1 -4281 0 -4325 l0 -38 200 0 200 0 0 68 c1 101
1 4230 0 4285 l0 47 -200 0 -200 0 0 -37z"/>
<path d="M4000 4363 c-1 -21 -2 -1011 -3 -2200 l-2 -2163 203 0 202 0 0 2200
0 2200 -200 0 -200 0 0 -37z"/>
</g>
</svg>
