<svg id="레이어_1" data-name="레이어 1" xmlns="http://www.w3.org/2000/svg" viewBox="0 0 234.66 67.36"><defs><style>.cls-1{fill:#fff;}</style></defs><title>logo_white</title><path class="cls-1" d="M99.78,45.62H77.17c-2,0-6-.69-6-5.82V7.08h4.15V41.41H99.78Z" transform="translate(-1.43 -1.8)"/><path class="cls-1" d="M126,45.53h-4.64V7.08H126Z" transform="translate(-1.43 -1.8)"/><path class="cls-1" d="M181.38,45.44h-4.82V28.65l-22-16.76V45.44h-4.82V7H156l20.52,14.53V7h4.82Z" transform="translate(-1.43 -1.8)"/><path class="cls-1" d="M232.41,45.62H209c-3.92,0-6.24-1.61-6.24-6.16V6.9h22.84v4.73H207.52V22.14h23.2v4.37h-23.2V40.89h24.89Z" transform="translate(-1.43 -1.8)"/><path class="cls-1" d="M70.94,53.85H72v7.53H70.94Z" transform="translate(-1.43 -1.8)"/><path class="cls-1" d="M77.32,58.26c0-.9-.36-1.36-1-1.36s-1.17.58-1.17,1.43v3.09H74V56h1.11v.49a1.94,1.94,0,0,1,1.7-.68,1.9,1.9,0,0,1,1.6,1.91v3.71H77.32Z" transform="translate(-1.43 -1.8)"/><path class="cls-1" d="M81.51,61.33H80.4V56.91h-.6v-1h.6v-.69a1.48,1.48,0,0,1,.29-1,1.25,1.25,0,0,1,.88-.36h.63v1c-.19,0-.38-.07-.54.06s-.15.25-.15.53v.46h.7v1h-.7Z" transform="translate(-1.43 -1.8)"/><path class="cls-1" d="M83.4,58.69c0-1.61,1-2.93,2.49-2.93s2.48,1.32,2.48,2.93a2.65,2.65,0,0,1-2.49,2.93C84.34,61.63,83.4,60.29,83.4,58.69Zm1.11,0c0,1.09.57,1.91,1.37,1.91s1.39-.82,1.39-1.91-.57-1.91-1.39-1.91S84.51,57.6,84.51,58.69Z" transform="translate(-1.43 -1.8)"/><path class="cls-1" d="M91,58.79v2.63H89.93V56H91v.69a2,2,0,0,1,.81-.73,2.74,2.74,0,0,1,.86-.21V57a1.55,1.55,0,0,0-1,.25A1.72,1.72,0,0,0,91,58.79Z" transform="translate(-1.43 -1.8)"/><path class="cls-1" d="M99.7,58.11c0-.74-.17-1.27-.74-1.25s-.9.49-.9,1.37v3.19H97V58.11c0-.74-.18-1.27-.75-1.25s-.89.5-.89,1.37v3.19H94.2V56h1.11v.49a1.7,1.7,0,0,1,1.32-.69,1.36,1.36,0,0,1,1.17.8,1.62,1.62,0,0,1,3,1.06v3.77H99.7Z" transform="translate(-1.43 -1.8)"/><path class="cls-1" d="M106,60.76a3,3,0,0,1-1.7.82,1.54,1.54,0,0,1-1.9-1.29,1.7,1.7,0,0,1,1.23-1.84,4.67,4.67,0,0,1,.86-.2,5.07,5.07,0,0,0,1.28-.29.48.48,0,0,0,.23-.44c0-.41-.38-.75-1.14-.75s-1.22.42-1.19,1h-1a2,2,0,0,1,2.23-2c1.22,0,2.27.65,2.27,1.77v3a2.34,2.34,0,0,0,.16.91h-1.13A3.17,3.17,0,0,1,106,60.76Zm-1.24-1.59c-.5.09-1.37.26-1.22,1,.22,1,2.45.13,2.45-.88v-.47A3.41,3.41,0,0,1,104.76,59.16Z" transform="translate(-1.43 -1.8)"/><path class="cls-1" d="M110.11,59.76c0,.19,0,.4.15.52s.26.14.55.14v1h-.65a1.17,1.17,0,0,1-.87-.39,1.52,1.52,0,0,1-.29-1V56.9h-.6v-1h.6V54.22h1.12V55.9h.7v1h-.7Z" transform="translate(-1.43 -1.8)"/><path class="cls-1" d="M112,54.4a.74.74,0,1,1,.74.73A.74.74,0,0,1,112,54.4Zm.2,1.49h1.09v5.47h-1.09Z" transform="translate(-1.43 -1.8)"/><path class="cls-1" d="M115,58.69c0-1.61,1-2.93,2.49-2.93s2.48,1.32,2.48,2.93a2.65,2.65,0,0,1-2.49,2.93C115.91,61.63,115,60.29,115,58.69Zm1.11,0c0,1.09.57,1.91,1.37,1.91s1.39-.82,1.39-1.91-.57-1.91-1.39-1.91S116.08,57.6,116.08,58.69Z" transform="translate(-1.43 -1.8)"/><path class="cls-1" d="M124.83,58.26c0-.9-.36-1.36-1-1.36s-1.17.58-1.17,1.43v3.09h-1.11V56h1.11v.49a1.94,1.94,0,0,1,1.7-.68,1.9,1.9,0,0,1,1.6,1.91v3.71h-1.12Z" transform="translate(-1.43 -1.8)"/><path class="cls-1" d="M135.84,60.55a2.82,2.82,0,0,1-1.79.94,1.47,1.47,0,0,1-1.75-1.24,1.41,1.41,0,0,1,1.06-1.58,11.93,11.93,0,0,1,1.76-.28c.28-.05.71-.17.71-.63s-.41-1.08-1.32-1.08-1.36.45-1.35,1.08h-.61c-.08-1,.87-1.65,2-1.65a1.75,1.75,0,0,1,2,1.67v2.74a2,2,0,0,0,.13.81H136A2.78,2.78,0,0,1,135.84,60.55Zm-2-1.48c-.62.19-.91.55-.88,1.06s.55.87,1.21.82c.87-.08,1.71-.79,1.71-1.41v-1a1.56,1.56,0,0,1-.52.25C134.82,58.93,134.28,58.92,133.8,59.07Z" transform="translate(-1.43 -1.8)"/><path class="cls-1" d="M141.54,58.16c0-.92-.46-1.39-1.18-1.39a1.49,1.49,0,0,0-1.46,1.48v3h-.63v-5h.63V57a2.07,2.07,0,0,1,1.76-.84,1.69,1.69,0,0,1,1.51,1.79v3.38h-.63Z" transform="translate(-1.43 -1.8)"/><path class="cls-1" d="M147.51,60.43a1.79,1.79,0,0,1-1.59,1c-1.28,0-2.11-1.16-2.11-2.69s.83-2.69,2.11-2.69a1.81,1.81,0,0,1,1.59,1V54.31h.65v6.92h-.65Zm-3-1.7c0,1.21.58,2.1,1.51,2.1s1.52-.84,1.52-2.1-.59-2.1-1.52-2.1S144.49,57.52,144.49,58.73Z" transform="translate(-1.43 -1.8)"/><path class="cls-1" d="M154.59,57.6c0-2.32,1.21-4,3.17-4a3.1,3.1,0,0,1,3,2.57h-1.18a1.82,1.82,0,0,0-1.76-1.49c-1.22,0-2,1.14-2,2.88s.81,2.91,2,2.91a1.91,1.91,0,0,0,1.78-1.58h1.18a3.13,3.13,0,0,1-3,2.64C155.79,61.58,154.59,59.94,154.59,57.6Z" transform="translate(-1.43 -1.8)"/><path class="cls-1" d="M162,58.69c0-1.61,1-2.93,2.49-2.93s2.48,1.32,2.48,2.93a2.65,2.65,0,0,1-2.49,2.93C162.89,61.63,162,60.29,162,58.69Zm1.11,0c0,1.09.57,1.91,1.37,1.91s1.39-.82,1.39-1.91-.57-1.91-1.39-1.91S163.06,57.6,163.06,58.69Z" transform="translate(-1.43 -1.8)"/><path class="cls-1" d="M174.06,58.11c0-.74-.17-1.27-.74-1.25s-.9.49-.9,1.37v3.19h-1.1V58.11c0-.74-.18-1.27-.75-1.25s-.89.5-.89,1.37v3.19h-1.11V56h1.11v.49a1.7,1.7,0,0,1,1.32-.69,1.36,1.36,0,0,1,1.17.8,1.62,1.62,0,0,1,3,1.06v3.77h-1.11Z" transform="translate(-1.43 -1.8)"/><path class="cls-1" d="M182.61,58.11c0-.74-.17-1.27-.74-1.25s-.9.49-.9,1.37v3.19h-1.1V58.11c0-.74-.18-1.27-.75-1.25s-.89.5-.89,1.37v3.19h-1.11V56h1.11v.49a1.7,1.7,0,0,1,1.32-.69,1.36,1.36,0,0,1,1.17.8,1.62,1.62,0,0,1,3,1.06v3.77h-1.11Z" transform="translate(-1.43 -1.8)"/><path class="cls-1" d="M188.82,60.89a1.8,1.8,0,0,1-3.25-1.24V56h1.11v3.17c0,.93.31,1.36,1,1.36s1.18-.6,1.18-1.46V56h1.1v5.44h-1.1Z" transform="translate(-1.43 -1.8)"/><path class="cls-1" d="M195,58.26c0-.9-.36-1.36-1-1.36s-1.17.58-1.17,1.43v3.09h-1.11V56h1.11v.49a1.94,1.94,0,0,1,1.7-.68,1.9,1.9,0,0,1,1.6,1.91v3.71H195Z" transform="translate(-1.43 -1.8)"/><path class="cls-1" d="M197.79,54.4a.74.74,0,1,1,.74.73A.74.74,0,0,1,197.79,54.4Zm.2,1.49h1.09v5.47H198Z" transform="translate(-1.43 -1.8)"/><path class="cls-1" d="M203.18,56.83c-.84,0-1.37.81-1.37,1.87s.53,1.88,1.37,1.88a1.13,1.13,0,0,0,1.11-.88h1.21a2.44,2.44,0,0,1-2.34,1.93c-1.56,0-2.48-1.34-2.48-2.93s.92-2.92,2.48-2.92a2.47,2.47,0,0,1,2.35,1.92h-1.18A1.16,1.16,0,0,0,203.18,56.83Z" transform="translate(-1.43 -1.8)"/><path class="cls-1" d="M210.25,60.76a3,3,0,0,1-1.7.82,1.54,1.54,0,0,1-1.9-1.29,1.7,1.7,0,0,1,1.23-1.84,4.67,4.67,0,0,1,.86-.2,5.07,5.07,0,0,0,1.28-.29.48.48,0,0,0,.23-.44c0-.41-.38-.75-1.14-.75s-1.22.42-1.19,1h-1a2,2,0,0,1,2.23-2c1.22,0,2.27.65,2.27,1.77v3a2.34,2.34,0,0,0,.16.91H210.4A3.17,3.17,0,0,1,210.25,60.76ZM209,59.16c-.5.09-1.37.26-1.22,1,.22,1,2.45.13,2.45-.88v-.47A3.41,3.41,0,0,1,209,59.16Z" transform="translate(-1.43 -1.8)"/><path class="cls-1" d="M214.36,59.76c0,.19,0,.4.15.52s.26.14.55.14v1h-.65a1.17,1.17,0,0,1-.87-.39,1.52,1.52,0,0,1-.29-1V56.9h-.6v-1h.6V54.22h1.12V55.9h.7v1h-.7Z" transform="translate(-1.43 -1.8)"/><path class="cls-1" d="M216.3,54.4a.74.74,0,1,1,.74.73A.74.74,0,0,1,216.3,54.4Zm.2,1.49h1.09v5.47H216.5Z" transform="translate(-1.43 -1.8)"/><path class="cls-1" d="M219.22,58.69c0-1.61,1-2.93,2.49-2.93s2.48,1.32,2.48,2.93a2.65,2.65,0,0,1-2.49,2.93C220.16,61.63,219.22,60.29,219.22,58.69Zm1.11,0c0,1.09.57,1.91,1.37,1.91s1.39-.82,1.39-1.91-.57-1.91-1.39-1.91S220.33,57.6,220.33,58.69Z" transform="translate(-1.43 -1.8)"/><path class="cls-1" d="M229.08,58.26c0-.9-.36-1.36-1-1.36s-1.17.58-1.17,1.43v3.09h-1.11V56h1.11v.49a1.94,1.94,0,0,1,1.7-.68,1.9,1.9,0,0,1,1.6,1.91v3.71h-1.12Z" transform="translate(-1.43 -1.8)"/><path class="cls-1" d="M231.73,59.71h1.06a1.05,1.05,0,0,0,1.16.91c.63,0,1-.29,1-.64s-.16-.51-.49-.67a4.87,4.87,0,0,0-.81-.27c-.28-.08-.57-.15-.77-.23a1.36,1.36,0,0,1-1-1.45,1.86,1.86,0,0,1,2-1.59,1.84,1.84,0,0,1,2,1.72h-1a.87.87,0,0,0-1-.72c-.6,0-.93.21-1,.6s.21.55.6.67a11,11,0,0,1,1.63.51c1.78,1,.64,3.08-1.2,3.08A2.11,2.11,0,0,1,231.73,59.71Z" transform="translate(-1.43 -1.8)"/><path class="cls-1" d="M52.71,22,15.93,1.8,1.43,28.21l21.79,12V59.37h2.73V41.68L38.2,48.41l3-5.52h9.33V31.67H47.4ZM37.12,44.71l-32-17.57L17,5.51,49,23.08ZM47.84,34.4v5.77H42.73L45.9,34.4Z" transform="translate(-1.43 -1.8)"/><path class="cls-1" d="M45.51,55.35c-1-.65-1.14-2.93-1.06-3.93L43,51.3l-1.5-.12c0,.43-.25,3.84,1.51,5.89a23.22,23.22,0,0,1-37.73-.71L3,57.93a26,26,0,0,0,42.4.54,4.7,4.7,0,0,0,.91.1,8.54,8.54,0,0,0,3.85-1.11l-1.38-2.66C47.27,55.55,46.12,55.75,45.51,55.35Z" transform="translate(-1.43 -1.8)"/></svg>