<svg id="레이어_1" data-name="레이어 1" xmlns="http://www.w3.org/2000/svg" viewBox="0 0 150 150"><title>me</title><rect width="150" height="150" style="fill:none"/><polygon points="91.97 93.16 108.94 93.16 110.65 95.96 112.83 99.59 93.4 110.84 80.13 99.56 86.42 94.61 91.97 93.16" style="fill:#dabdba"/><polygon points="91.97 93.16 86.15 94.61 85.61 97.79 59.11 108.13 76.09 99.93 79.62 93.16 91.97 93.16" style="fill:#c8cfc9"/><path d="M93.46,105.31c14,0,15.48-12.15,15.48-12.15l1.71,2.8,2.18,3.63-19.43,44L76.09,99.93l3.53-6.77s-.18,12.15,13.84,12.15" style="fill:#ac9569"/><g style="opacity:0.100006"><polygon points="97.03 99.51 108.94 93.16 110.65 95.96 112.83 99.59 97.68 141.84 90.92 143.59 97.03 99.51" style="fill:#070001"/></g><path d="M106.75,108.45l-5.53-9.56-1.77,8.69s1.83-8.31,7.3.87" style="fill:#b7beb6"/><path d="M80.87,108.13l5.36-9.24,1.41,8.36s-1.81-7.66-6.77.88" style="fill:#b7beb6"/><path d="M111.05,92.38h0l.08-.1Z" style="fill:#4b4642"/><path d="M111.05,92.38h0l.08-.1Z" style="fill:#4b4642"/><polygon points="62.03 102.75 47.08 112.37 45.32 112.92 33.86 101.42 45.76 111.6 62.03 102.75" style="fill:#c8d1c7"/><path d="M85.5,94.32l-.12.7,1.09.4,0,.33.58.21a78.75,78.75,0,0,0,1.41,8.29,19.11,19.11,0,0,0,4.31.46,21.85,21.85,0,0,0,2.77-.18L96.34,99,99,97.52c.12-1.24.18-2.1.18-2.1L107.45,93l.73-.39H91.32L85.8,94.08Z" style="fill:#d6bab7"/><polygon points="85.5 94.32 85.8 94.08 91.32 92.64 85.54 94.08 85.5 94.32" style="fill:none"/><path d="M123.74,132c1-.84,1.93-1.7,2.87-2.59l-3.9-9.38Z" style="fill:none"/><path d="M110.32,91.76l0,.1h0A.39.39,0,0,0,110.32,91.76Z" style="fill:none"/><path d="M23.83,94.45a6.19,6.19,0,0,0-1.07,12.28l7-7.85A6.19,6.19,0,0,0,23.83,94.45Z" style="fill:#e6c7b1"/><path d="M79.05,92.73l5.8,2.1.65-.51,0-.24,5.78-1.44H79.05Z" style="fill:#c7ccc6"/><polygon points="85.5 94.32 84.85 94.83 85.38 95.02 85.5 94.32" style="fill:#c7ccc6"/><path d="M92.74,110.2l-3.45-2.93c1.16,4.06-.08,2.38,1.81,9.7a67.73,67.73,0,0,1,1.45,9.32L95,108.91Z" style="fill:#a99167"/><path d="M95,108.91l.61-4.38a21.85,21.85,0,0,1-2.77.18,19.11,19.11,0,0,1-4.31-.46c.19.86.41,1.71.66,2.53,0,.17.09.33.14.49l3.45,2.93Z" style="fill:#a99167"/><path d="M79.05,92.64l0,.07,0,0Z" style="fill:#a99167"/><path d="M99,97.52,96.34,99l-.77,5.58A16.83,16.83,0,0,0,98,104,45.25,45.25,0,0,0,99,97.52Z" style="fill:#d6bab7"/><path d="M99,97.52,96.34,99l-.77,5.58A16.83,16.83,0,0,0,98,104,45.25,45.25,0,0,0,99,97.52Z" style="fill:#080103;opacity:0.1"/><path d="M108.15,92.82l0-.18-.73.39Z" style="fill:#d6bab7"/><path d="M108.15,92.82l0-.18-.73.39Z" style="fill:#080103;opacity:0.1"/><path d="M92.55,126.29c.28,2.82.48,5.66.6,8,.49-5.55,1.36-14.11,2.38-18,1.15-4.4.87-6.56,1.18-8.44l-1.75,1Z" style="fill:#a99167"/><path d="M92.55,126.29c.28,2.82.48,5.66.6,8,.49-5.55,1.36-14.11,2.38-18,1.15-4.4.87-6.56,1.18-8.44l-1.75,1Z" style="fill:#080103;opacity:0.1"/><path d="M98,104a16.83,16.83,0,0,1-2.43.49L95,108.91l1.75-1a6.7,6.7,0,0,1,.65-2A8.86,8.86,0,0,0,98,104Z" style="fill:#a99167"/><path d="M98,104a16.83,16.83,0,0,1-2.43.49L95,108.91l1.75-1a6.7,6.7,0,0,1,.65-2A8.86,8.86,0,0,0,98,104Z" style="fill:#080103;opacity:0.1"/><path d="M108.15,92.82l.12,0-.09-.15Z" style="fill:#a99167"/><path d="M108.15,92.82l.12,0-.09-.15Z" style="fill:#080103;opacity:0.1"/><path d="M121.7,117.58l1.3,15,.74-.64-1-12Z" style="fill:#cfd7cf"/><path d="M120.13,134.9c-.54-5.49-.9-11.89-.1-15,1.57-6,2.14-6.75,2.14-6.75l7.23,13.42a75.51,75.51,0,0,0,5.83-6.91l-7.67-16.58-14.78-3.84-3.62-6-.38.11-.39-.64-.12,0,1.6,2.63L112,99,97,141l-3.93,1-.32.72-.23-.58-2.24.58.64-4.61L76.08,100.71l-17.4,6.79,16.86-8.14L79,92.71l-.18-.06-3.5,6.72L62,102.75,45.76,111.6,30.25,98.33l-.49.55a6,6,0,0,1,.26,1.76,6.19,6.19,0,0,1-6.19,6.19,6.36,6.36,0,0,1-1.07-.1l-.68.77,22,17.82,20.56-8.11-4.41,31.33a75,75,0,0,0,59.87-13.64Zm-27.39,8.9a1.52,1.52,0,1,1-1.52,1.52A1.51,1.51,0,0,1,92.74,143.8Z" style="fill:#cfd7cf"/><path d="M23.83,106.83A6.19,6.19,0,0,0,30,100.64a6,6,0,0,0-.26-1.76l-7,7.85A6.36,6.36,0,0,0,23.83,106.83Z" style="fill:#cfd7cf"/><path d="M99.2,95.42s-.06.86-.18,2.1L107.45,93Z" style="fill:#cfd7cf"/><path d="M80.82,98.86a11,11,0,0,0,2.69,3.1l2.11-3.63.9,5.32a13,13,0,0,0,2,.6A78.75,78.75,0,0,1,87.08,96l-.58-.21,0-.33L85.38,95,85,97.23Z" style="fill:#cfd7cf"/><polygon points="58.68 107.5 76.08 100.71 75.55 99.36 58.68 107.5" style="fill:#cfd7cf"/><path d="M79.05,92.73a13.35,13.35,0,0,0,1.44,5.53l4.36-3.43Z" style="fill:#cfd7cf"/><path d="M85,97.23,85.38,95l-.53-.19-4.36,3.43q.15.3.33.6Z" style="fill:#cfd7cf"/><polygon points="92.74 142.73 93.06 142 92.51 142.15 92.74 142.73" style="fill:#cfd7cf"/><path d="M91.1,117c-1.89-7.32-.65-5.64-1.81-9.7l-2.52-2.15.25,1.51a6.94,6.94,0,0,0-.89-2l-1.18-1c-1.06-.37-2.58.35-4.65,3.92l3.06-5.27-3.51-3-3.77,1.47,14.83,37.41,1.64-11.83A67.73,67.73,0,0,0,91.1,117Z" style="fill:#cfd7cf"/><path d="M80.82,98.86l-1,.38,3.51,3,.15-.27A11,11,0,0,1,80.82,98.86Z" style="fill:#cfd7cf"/><path d="M88.49,104.25a13,13,0,0,1-2-.6l.25,1.47,2.52,2.15c-.05-.16-.09-.32-.14-.49C88.9,106,88.68,105.11,88.49,104.25Z" style="fill:#cfd7cf"/><path d="M85,103.58l1.18,1A2.45,2.45,0,0,0,85,103.58Z" style="fill:#cfd7cf"/><path d="M79.56,99l.93-.73a13.35,13.35,0,0,1-1.44-5.53l0,0-3.47,6.65.54,1.35,3.77-1.47Z" style="fill:#cfd7cf"/><path d="M80.49,98.26l-.93.73.29.25,1-.38Q80.64,98.56,80.49,98.26Z" style="fill:#cfd7cf"/><polygon points="96.99 140.99 112.04 99.02 93.06 142 96.99 140.99" style="fill:#cfd7cf"/><polygon points="90.27 142.73 92.51 142.15 90.91 138.12 90.27 142.73" style="fill:#cfd7cf"/><path d="M99,97.52A45.25,45.25,0,0,1,98,104c.5-.14,1-.29,1.44-.47l1.07-5.24,2,3.56a14.59,14.59,0,0,0,5.59-9.07l-.7.21Z" style="fill:#cfd7cf"/><path d="M106,107.82a13,13,0,0,0-2.9-3.63l-4.28,2.48c0,.18-.07.28-.07.28l0-.26-2.09,1.21c-.31,1.88,0,4-1.18,8.44-1,3.88-1.89,12.44-2.38,18-.12-2.38-.32-5.22-.6-8l-1.64,11.83,1.6,4,.55-.14,19-43-8.34,4.83Z" style="fill:#cfd7cf"/><path d="M98.82,106.67l4.28-2.48C100.35,102.09,99.11,105.63,98.82,106.67Z" style="fill:#cfd7cf"/><path d="M98,104a8.86,8.86,0,0,1-.64,1.84,6.7,6.7,0,0,0-.65,2l2.09-1.21.64-3.12C99,103.75,98.5,103.9,98,104Z" style="fill:#cfd7cf"/><path d="M102.56,101.89l1.14,2L112,99l-2.17-3.6-1.6-2.63-.12,0A14.59,14.59,0,0,1,102.56,101.89Z" style="fill:#cfd7cf"/><path d="M122.65,119.27l.06.74,3.9,9.38c.36-.35.74-.69,1.1-1Z" style="fill:#c8d1c7"/><path d="M120,119.93c-.8,3.08-.44,9.48.1,15,1-.74,1.93-1.5,2.87-2.28l-1.3-15,1,2.43-.06-.74,5.06,9.07c.57-.57,1.13-1.15,1.69-1.74l-7.23-13.42S121.6,113.94,120,119.93Z" style="fill:#c8d1c7"/><path d="M99.44,103.57a14,14,0,0,0,3.12-1.68l-2-3.56Z" style="fill:#b5bcb4"/><path d="M98.75,107s0-.1.07-.28l0,0Z" style="fill:#b5bcb4"/><path d="M106,107.82l-2.3-4-.6.34A13,13,0,0,1,106,107.82Z" style="fill:#b5bcb4"/><path d="M98.8,106.69l0,0c.29-1,1.53-4.58,4.28-2.48l.6-.34-1.14-2a14,14,0,0,1-3.12,1.68Z" style="fill:#b5bcb4"/><path d="M83.51,102a11.7,11.7,0,0,0,3,1.69l-.9-5.32Z" style="fill:#b5bcb4"/><path d="M80.3,107.5c2.07-3.57,3.59-4.29,4.65-3.92l-1.59-1.35Z" style="fill:#b5bcb4"/><path d="M87,106.63l-.25-1.51-.64-.53A6.94,6.94,0,0,1,87,106.63Z" style="fill:#b5bcb4"/><path d="M83.51,102l-.15.27L85,103.58a2.45,2.45,0,0,1,1.18,1l.64.53-.25-1.47A11.7,11.7,0,0,1,83.51,102Z" style="fill:#b5bcb4"/><path d="M92.74,146.83a1.52,1.52,0,1,0-1.52-1.51A1.51,1.51,0,0,0,92.74,146.83Z" style="fill:#b5bcb4"/><path d="M110.32,91.76a.39.39,0,0,1-.08.1h0Z" style="fill:#4b4642"/><path d="M101.24,22l-13,11,5.38,6C93.44,26.91,98,34.24,98,34.24s.18-3.15,1.46-2.36l2.9-10.77a6.57,6.57,0,0,0-1.07.91" style="fill:#503f32"/><path d="M101.24,22l-13,11,5.38,6C93.44,26.91,98,34.24,98,34.24s.18-3.15,1.46-2.36l2.9-10.77a6.57,6.57,0,0,0-1.07.91" style="fill:#503f32"/><path d="M101.24,22l-13,11,5.38,6C93.44,26.91,98,34.24,98,34.24s.18-3.15,1.46-2.36l2.9-10.77a6.57,6.57,0,0,0-1.07.91" style="fill:#503f32"/><path d="M101.24,22l-13,11,5.38,6C93.44,26.91,98,34.24,98,34.24s.18-3.15,1.46-2.36l2.9-10.77a6.57,6.57,0,0,0-1.07.91" style="fill:#503f32"/><path d="M101.24,22l-13,11,5.38,6C93.44,26.91,98,34.24,98,34.24s.18-3.15,1.46-2.36l2.9-10.77a6.57,6.57,0,0,0-1.07.91" style="fill:#503f32"/><path d="M101.24,22l-13,11,5.38,6C93.44,26.91,98,34.24,98,34.24s.18-3.15,1.46-2.36l2.9-10.77a6.57,6.57,0,0,0-1.07.91" style="fill:#503f32"/><path d="M101.24,22l-13,11,5.38,6C93.44,26.91,98,34.24,98,34.24s.18-3.15,1.46-2.36l2.9-10.77a6.57,6.57,0,0,0-1.07.91" style="fill:#503f32"/><path d="M101.24,22l-13,11,5.38,6C93.44,26.91,98,34.24,98,34.24s.18-3.15,1.46-2.36l2.9-10.77a6.57,6.57,0,0,0-1.07.91" style="fill:#503f32"/><path d="M101.24,22l-13,11,5.38,6C93.44,26.91,98,34.24,98,34.24s.18-3.15,1.46-2.36l2.9-10.77a6.57,6.57,0,0,0-1.07.91" style="fill:#503f32"/><path d="M101.24,22l-13,11,5.38,6C93.44,26.91,98,34.24,98,34.24s.18-3.15,1.46-2.36l2.9-10.77a6.57,6.57,0,0,0-1.07.91" style="fill:#503f32"/><path d="M101.24,22l-13,11,5.38,6C93.44,26.91,98,34.24,98,34.24s.18-3.15,1.46-2.36l2.9-10.77a6.57,6.57,0,0,0-1.07.91" style="fill:#503f32"/><path d="M101.24,22l-13,11,5.38,6C93.44,26.91,98,34.24,98,34.24s.18-3.15,1.46-2.36l2.9-10.77a6.57,6.57,0,0,0-1.07.91" style="fill:#503f32"/><path d="M101.24,22l-13,11,5.38,6C93.44,26.91,98,34.24,98,34.24s.18-3.15,1.46-2.36l2.9-10.77a6.57,6.57,0,0,0-1.07.91" style="fill:#503f32"/><path d="M101.24,22l-13,11,5.38,6C93.44,26.91,98,34.24,98,34.24s.18-3.15,1.46-2.36l2.9-10.77a6.57,6.57,0,0,0-1.07.91" style="fill:#503f32"/><path d="M101.24,22l-13,11,5.38,6C93.44,26.91,98,34.24,98,34.24s.18-3.15,1.46-2.36l2.9-10.77a6.57,6.57,0,0,0-1.07.91" style="fill:#503f32"/><path d="M101.24,22l-13,11,5.38,6C93.44,26.91,98,34.24,98,34.24s.18-3.15,1.46-2.36l2.9-10.77a6.57,6.57,0,0,0-1.07.91" style="fill:#503f32"/><path d="M101.24,22l-13,11,5.38,6C93.44,26.91,98,34.24,98,34.24s.18-3.15,1.46-2.36l2.9-10.77a6.57,6.57,0,0,0-1.07.91" style="fill:#503f32"/><path d="M118.26,76.62c-.09,0-1.5,1.25-1.65,1.35-1.26.88-2.55,1.71-3.83,2.54-3.54,2.28-7.11,4.51-10.62,6.83a65.73,65.73,0,0,0-8.59,6.23c-.44.41-2.24,2-.65,2.11a31,31,0,0,0,20.53-6.32,50.59,50.59,0,0,0,5.24-4.57c1.53-1.52,2.78-3.3,4.25-4.84-.61.17-4.57-3.3-4.68-3.33" style="fill:#6e5748"/><path d="M98.13,27.13c-7.77,0-14.24,6.3-19.52,6.59-16.83.91-21.4,6.15-16.85,34.13C63,75.59,65.37,83.13,71,88.8a30.46,30.46,0,0,0,19.22,8.89c13.13.9,24.16-6.94,29.55-18.46A48.17,48.17,0,0,0,124,64.66a35.67,35.67,0,0,0-.93-14.32,22.77,22.77,0,0,0-7.2-11.27,24,24,0,0,0-10.41-4.79c-2.22-.46-4.67-7.15-7.35-7.15" style="fill:#e9ccc6"/><path d="M68.59,77.32s1.29,2.82-1.42,2c-.12,0-.62.07-.76.07a5.13,5.13,0,0,1-1.87-.35c-2.77-1.06-4.8-4.39-4.8-8.35a9.37,9.37,0,0,1,3.46-7.63l.12-.07Z" style="fill:#e9ccc6"/><g style="opacity:0.070007"><path d="M107.44,34.81l-16.89.74a1.53,1.53,0,0,0-1.46,1.64l.27,4a1.52,1.52,0,0,1-.75,1.43c-7.37,4.29-20,13.77-25.46,19.45a4.18,4.18,0,0,0-1,2.88,1.52,1.52,0,0,0,1,1.57l.63.21a1.56,1.56,0,0,0,.42.08,36.86,36.86,0,0,0,22.21-6.61,17.11,17.11,0,0,0,5.86-8,30.82,30.82,0,0,0,1.37-4.91c.35-1.77.23-5.62.47-7.39.3-2.25,3.29,2.7,4.19,3,.16,0-.17.11,0,0,2.36-1.51,3.54-2.82,5.92-2,5.72,2,5.29-2.56,4.75-4.88a1.52,1.52,0,0,0-1.56-1.19" style="fill:#060001"/></g><path d="M90.08,75a2,2,0,0,0,0,3.88,8,8,0,0,1,0-3.88" style="fill:#d2b7b3"/><path d="M84.73,84.77S88,87.19,91,87.19,98,83.64,98,83.64Z" style="fill:#d2b7b3"/><path d="M78.44,68.82c0,1.49-.87,2.7-1.94,2.7s-1.93-1.21-1.93-2.7.86-2.71,1.93-2.71,1.94,1.21,1.94,2.71" style="fill:#6e5748"/><path d="M77.86,68.82a1.36,1.36,0,1,1-1.36-1.36,1.36,1.36,0,0,1,1.36,1.36" style="fill:#6e5748"/><path d="M107.63,67.53c0,1.49-.86,2.7-1.93,2.7s-1.94-1.21-1.94-2.7.87-2.71,1.94-2.71,1.93,1.21,1.93,2.71" style="fill:#6e5748"/><path d="M107.05,67.53a1.36,1.36,0,1,1-1.35-1.36,1.35,1.35,0,0,1,1.35,1.36" style="fill:#6e5748"/><path d="M98,60.89h-.36c-.66,0-1.4-.32-1.4-.87s.74-.78,1.24-1,.9-.43,1.37-.61a20.2,20.2,0,0,1,3.24-1,41.82,41.82,0,0,1,9-.72c1.77,0,3.53.1,5.29.22,1,.06,1.78.6,1.86,1.3.09.91-.94,1.62-2.12,1.54-2.19-.15-4.4-.24-6.61-.22a51.18,51.18,0,0,0-6.32.37,19.93,19.93,0,0,0-2.71.49,9,9,0,0,1-2.44.5" style="fill:#6e5748"/><path d="M118.76,78.49l5.44-14.61a5.48,5.48,0,0,0-3.09-1,5.23,5.23,0,0,0-1.81.33,76.06,76.06,0,0,1-.54,15.27" style="fill:#6e5748"/><path d="M118.76,78.49s1.39-4.86,2.37-7.55c2.31-6.38,3.07-7.06,3.07-7.06a5.48,5.48,0,0,0-3.09-1c-.63,0-6.18-9.33-6.76-9.12.33,4.59,5.15,19.11,4.41,24.72" style="fill:#6e5748"/><path d="M130.08,40.65A30.79,30.79,0,0,0,119.88,27c-3.37-2.6-9-5.87-13.35-6.23a10.92,10.92,0,0,0-4.22.33c-.64-.05-1.36-1.21-1.81-1.62-2.58-2.39-6.73-3.48-10.17-3.4-6.56.13-12.5,3.57-17.7,7.25C68.9,26,65,28.58,61.94,32c-3.22,3.62-3.87,9.37-5.94,13.69-2.49,5.18-.65,10.22,1.34,15.22,2.3,5.81,4.55,10.71,7,16.45,0,0-7.56-39.83,34.7-51.43,0,0,18.26,9.71,20.22,37.27a5.23,5.23,0,0,1,1.81-.33,5.48,5.48,0,0,1,3.09,1l.37-1c-.09.36-.17.71-.26,1.07a9.34,9.34,0,0,1,3.46,7.63v.09c4.62-9.89,6-21.24,2.31-31" style="fill:#6e5748"/><path d="M101.24,22l-13,11,5.38,6C93.44,26.91,98,34.24,98,34.24s.18-3.15,1.46-2.36l2.9-10.77a6.57,6.57,0,0,0-1.07.91" style="fill:#503f32"/><path d="M115.29,40.89l-10.78-9.13a3.76,3.76,0,0,0-6.18,2.86,3.76,3.76,0,0,0-6.18-2.86L81.37,40.89l10,10.73c1.52-15.89,6.1-10.13,7-8.77.89-1.36,1.32-5.7,5.83,3.56Z" style="fill:#43342a"/><path d="M118.92,78.2s-1.29,2.82,1.42,2c.12,0,.63.08.77.08a5.39,5.39,0,0,0,1.87-.35c2.77-1.06,4.79-4.4,4.79-8.35A9.34,9.34,0,0,0,124.31,64l-.11-.08Z" style="fill:#e9ccc6"/><path d="M126.83,44.21c-.26-6.35-5.36-12.51-10-16.49-3.4-3-9.76-6.74-14.56-6.45a3.51,3.51,0,0,0-3,1.77c-1.47-2.18-2.74-2.88-3.87-3.21a28.63,28.63,0,0,0-22.8,3.51c-7.49,4.75-10.3,11.05-14,19.13-1,2.1-2.79,4.38-5.11,4.82a4.31,4.31,0,0,1-2-.09c7.69,6.94,17.85,13.94,28.75,10.91,14.15-3.93,9-21.7,15.85-30.82l.49-.14c.52.26,1.35-.25,2.07.26,1.5,1.07,1.68,3,2.41,4.5s2.12,3,2.92,4.66c2,4.09,2.81,8.77,5.62,12.43,3.39,4.43,8.89,6.07,14.15,7A12.06,12.06,0,0,0,132,54.93c.22-.13.59-.66.79-.72,0,0-5.43,2.51-5.94-10" style="fill:#604c3d"/><path d="M97.41,25.84l-.08.08c-.83-.77-1.79-3.27-2.24-3.59-4.89-3.53-11,.15-15.7,2.19-6.61,2.9-12.8,7.67-16.31,14.09-2.19,4-2.48,8.72-4.19,12.92-.08.21-.16.41-.25.61-1.49,3.35-6.63,9.69-11,6.7,2.65,1.81,5,3.91,8.09,5.08,9.49,3.65,22,.72,30.07-5,6-4.3,7.31-12.48,7.81-19.31.34-4.72,2.42-1.75,4.37,2.47-2.72-7.77-2.12-12.89-.56-16.21" style="fill:#4d3d32"/><g style="opacity:0.070007"><path d="M97.69,30.23c-.42,2.1,3.84,9.43,4.3,10.14,2.73,4.27,3.52,9.4,5.68,13.94a19.8,19.8,0,0,0,15.09,11.45c2,.29,6.8.7,7.86-1.62,0,0-32.44-36.34-32.93-33.91" style="fill:#060001"/></g><path d="M122.53,45.29a21,21,0,0,0-4.22-11.87,30.39,30.39,0,0,0-8.37-7.61,28.4,28.4,0,0,0-4.38-2.35c-1.29-.52-3.3-1.25-4.67-.69-2.43,1-4,3.74-4.49,6.17a19.64,19.64,0,0,0-.11,6.4A33.81,33.81,0,0,0,98,42.05l.36.8c-.5-1.13-1.31-4.31-.41-5.47s2.32,1,2.78,1.71c2.73,4.26,3.52,9.4,5.67,13.93a19.83,19.83,0,0,0,15.1,11.45c2,.29,8.13.42,9.19-1.9,0,0-7.92-8.15-8.13-17.28" style="fill:#534234"/><path d="M80.62,60.89H81c.67,0,1.41-.32,1.4-.87s-.73-.78-1.24-1-.9-.43-1.37-.61a20.2,20.2,0,0,0-3.24-1,41.82,41.82,0,0,0-9-.72c-1.77,0-3.53.1-5.29.22-1,.06-1.78.6-1.85,1.3-.1.91.94,1.62,2.11,1.54,2.19-.15,4.4-.24,6.61-.22a51.45,51.45,0,0,1,6.33.37,20.51,20.51,0,0,1,2.71.49,8.82,8.82,0,0,0,2.43.5" style="fill:#46372d"/><path d="M26.74,118.12a1,1,0,0,1-1-.88L12.86,40.78a1,1,0,0,1,.7-1.18,1,1,0,0,1,1,.89l12.84,76.45A1,1,0,0,1,26.74,118.12Z" style="fill:#dbdada"/><path d="M26.74,118.12c-.13,0-13.31-78.5-13.18-78.52a1,1,0,0,1,1,.89l12.84,76.45A1,1,0,0,1,26.74,118.12Z" style="fill:#cccccd"/><path d="M14.64,38.16a1.31,1.31,0,1,0-1.07,1.51A1.31,1.31,0,0,0,14.64,38.16Z" style="fill:#dbdada"/><path d="M13.71,40.54A2.19,2.19,0,1,1,15.52,38,2.2,2.2,0,0,1,13.71,40.54ZM13.28,38a.43.43,0,0,0-.35.49.44.44,0,0,0,.49.35.43.43,0,1,0-.14-.84Z" style="fill:#cccccd"/><path d="M13.71,40.54A2.19,2.19,0,1,1,13,36.21C14.18,36,14.91,40.34,13.71,40.54ZM13.28,38a.43.43,0,0,0-.35.49.44.44,0,0,0,.49.35.43.43,0,1,0-.14-.84Z" style="fill:#dbdada"/><path id="바_" data-name="바≈¡" d="M18.49,64.59c-.66-3.94-.45-8-1.11-12s-2.2-7.74-2.86-11.68h0a28.84,28.84,0,0,1,11.69-2.81c4-.23,8.1-.05,12.11-.29A29,29,0,0,0,50,35h0c.66,3.94,2.2,7.73,2.86,11.67s.45,8,1.11,12C42.78,64.41,29.69,58.86,18.49,64.59Z" style="fill:#e4eaec"/><path id="바_2" data-name="바≈¡" d="M18.29,64.44c-.66-3.94-.45-8-1.11-12S15,44.73,14.32,40.79h0A28.79,28.79,0,0,1,26,38c4-.24,8.09-.06,12.1-.3a28.79,28.79,0,0,0,11.69-2.8h0c.66,3.94,2.2,7.74,2.86,11.68s.45,8,1.11,12C42.58,64.26,29.49,58.72,18.29,64.44Z" style="fill:#eaf3f6"/><g id="_4_" data-name="4±•"><path d="M26.46,59.67l.73-.65q-2.07-2.28-4.11-4.41l-.72.73C23.72,56.72,25.08,58.17,26.46,59.67Z" style="fill:#070001"/><path d="M28.66,57.78l.75-.59c-1.39-1.58-2.78-3.13-4.15-4.62l-.73.66C25.9,54.7,27.28,56.23,28.66,57.78Z" style="fill:#070001"/><path d="M24.16,53.57l-.72.69c.63.66,1.25,1.32,1.88,2l.73-.65Z" style="fill:#070001"/><path d="M25.66,56.63c.63.68,1.27,1.38,1.9,2.08l.74-.62L26.4,56Z" style="fill:#070001"/><path d="M20.8,46.06q.45.16.9.36c.81-1.87,1.63-3.67,2.46-5.43l-.91-.45C22.42,42.33,21.6,44.16,20.8,46.06Z" style="fill:#070001"/><path d="M22.15,46.61l.91.4q1.23-2.73,2.48-5.32l-.92-.47C23.79,43,23,44.76,22.15,46.61Z" style="fill:#070001"/><path d="M23.51,47.22l.92.43c.82-1.79,1.66-3.52,2.49-5.22l-.92-.5Q24.74,44.51,23.51,47.22Z" style="fill:#070001"/><path d="M41.17,56.9l.92.5L43.23,55l-.91-.47C41.93,55.33,41.55,56.12,41.17,56.9Z" style="fill:#070001"/><path d="M44.58,52.11l-.92-.43q-.57,1.23-1.14,2.43l.92.46Q44,53.36,44.58,52.11Z" style="fill:#070001"/><path d="M45.94,52.72l-.91-.4c-.37.84-.75,1.66-1.13,2.48l.91.43C45.19,54.41,45.57,53.57,45.94,52.72Z" style="fill:#070001"/><path d="M42.55,57.64l.92.47q.57-1.2,1.14-2.43l-.92-.45Z" style="fill:#070001"/><path d="M47.29,53.27l-.9-.36c-.37.86-.75,1.7-1.12,2.53l.91.41Q46.74,54.58,47.29,53.27Z" style="fill:#070001"/><path d="M43.93,58.34l.91.45c.38-.82.76-1.65,1.13-2.49l-.91-.41C44.69,56.72,44.31,57.53,43.93,58.34Z" style="fill:#070001"/><path d="M43.93,45.77l.72-.69c-1.36-1.43-2.73-2.92-4.12-4.45l-.73.62C41.18,42.8,42.56,44.32,43.93,45.77Z" style="fill:#070001"/><path d="M39.43,41.56l-.74.6c.63.72,1.27,1.44,1.91,2.15l.73-.63Z" style="fill:#070001"/><path d="M42.84,46.78l.73-.67-1.9-2-.73.63C41.57,45.39,42.2,46.09,42.84,46.78Z" style="fill:#070001"/><path d="M41.63,39.68l-.73.64c.63.7,1.27,1.39,1.9,2.06l.72-.68C42.89,41,42.27,40.36,41.63,39.68Z" style="fill:#070001"/><path d="M45,44.73l.72-.73c-.62-.63-1.24-1.28-1.87-1.94l-.72.69C43.76,43.42,44.39,44.08,45,44.73Z" style="fill:#070001"/></g><path id="_" data-name="¿" d="M39.87,51.19a3.57,3.57,0,0,0-3.52-2.86,2.56,2.56,0,0,0-2.29,1.31v0l0,0A2.56,2.56,0,0,1,31.74,51a3.58,3.58,0,0,1-3.52-2.87,2.72,2.72,0,0,1,.23-1.66h0A5.46,5.46,0,0,0,28,49.81,7.24,7.24,0,0,0,35,55.58a5,5,0,0,0,4.6-2.73h0A2.72,2.72,0,0,0,39.87,51.19Z" style="fill:#002e6d"/><path id="양" d="M33.05,43.75a5,5,0,0,0-4.6,2.73h0a2.72,2.72,0,0,0-.23,1.66A3.58,3.58,0,0,0,31.74,51,2.56,2.56,0,0,0,34,49.69v0l0,0a2.56,2.56,0,0,1,2.29-1.31,3.57,3.57,0,0,1,3.52,2.86,2.72,2.72,0,0,1-.23,1.66h0a5.46,5.46,0,0,0,.46-3.33A7.24,7.24,0,0,0,33.05,43.75Z" style="fill:#ce0e2d"/><path d="M17.65,100.64a6.19,6.19,0,1,0,12.37,0C30,97.23,17.65,97.23,17.65,100.64Z" style="fill:#e6c7b1"/></svg>